<svg xmlns="http://www.w3.org/2000/svg" width="40" height="40"><path opacity=".2" fill="gray" d="M20.201 5.169c-8.254 0-14.946 6.692-14.946 14.946 0 8.255 6.692 14.946 14.946 14.946s14.946-6.691 14.946-14.946c-.001-8.254-6.692-14.946-14.946-14.946zm0 26.58c-6.425 0-11.634-5.208-11.634-11.634 0-6.425 5.209-11.634 11.634-11.634 6.425 0 11.633 5.209 11.633 11.634 0 6.426-5.208 11.634-11.633 11.634z"/><path fill="#{transparentize($white, 0.5)}" d="M12.29 11.296l-2.244-2.433a14.855 14.855 0 0 0-4.144 6.528l3.162.987a11.57 11.57 0 0 1 3.225-5.082z"><animateTransform attributeType="xml" attributeName="transform" type="rotate" from="0 20 20" to="360 20 20" dur="0.5s" repeatCount="indefinite"/></path></svg>